<svg width="16" height="17" viewBox="0 0 16 17" fill="none" xmlns="http://www.w3.org/2000/svg">
<path d="M15.9999 8.12629C15.9812 6.59236 15.5271 5.09574 14.6913 3.81272C13.8555 2.52969 12.6728 1.51367 11.2823 0.88433C9.89178 0.254991 8.35153 0.0385397 6.84289 0.260454C5.33428 0.482379 3.92008 1.13342 2.76687 2.13694C1.61366 3.14045 0.769464 4.45463 0.333702 5.9247C-0.102051 7.39479 -0.111232 8.95951 0.307261 10.4347C0.725753 11.9099 1.55448 13.2339 2.69584 14.251C3.83719 15.2682 5.24366 15.936 6.74959 16.1758V10.4707H4.74954V8.12629H6.74959V6.34534C6.70329 5.93125 6.74789 5.51196 6.88029 5.1171C7.01269 4.72223 7.2296 4.36141 7.51571 4.06011C7.80182 3.75879 8.15013 3.52434 8.53614 3.3733C8.92215 3.22226 9.33646 3.15829 9.74967 3.18594C10.3495 3.1942 10.9479 3.24802 11.5397 3.34693V5.3593H10.5397C10.3673 5.33742 10.1921 5.35481 10.0273 5.41018C9.86238 5.46555 9.71197 5.55748 9.58717 5.67919C9.46237 5.8009 9.36636 5.94927 9.30626 6.11331C9.24606 6.27742 9.22336 6.453 9.23966 6.62707V8.14641H11.4597L11.0997 10.4908H9.24966V16.1255C11.1396 15.8247 12.8599 14.8523 14.0983 13.3847C15.3367 11.9171 16.0114 10.0515 15.9999 8.12629Z" fill="white"/>
</svg>
