<svg width="16" height="17" viewBox="0 0 16 17" fill="none" xmlns="http://www.w3.org/2000/svg">
<g clip-path="url(#clip0_88_1412)">
<path d="M8 0.175781C3.58125 0.175781 0 3.75703 0 8.17578C0 12.5945 3.58125 16.1758 8 16.1758C12.4187 16.1758 16 12.5945 16 8.17578C16 3.75703 12.4187 0.175781 8 0.175781ZM12.9937 13.1664C12.3437 13.8164 11.5906 14.3258 10.75 14.6789C9.88125 15.0477 8.95625 15.232 8 15.232C7.04688 15.232 6.12187 15.0445 5.25 14.6789C4.40938 14.3227 3.65312 13.8133 3.00625 13.1664C2.35625 12.5164 1.84688 11.7633 1.49375 10.9227C1.125 10.0539 0.9375 9.12891 0.9375 8.17578C0.9375 7.22266 1.125 6.29766 1.49062 5.42578C1.84687 4.58516 2.35625 3.82891 3.00312 3.18203C3.65625 2.53203 4.40938 2.02266 5.25 1.66641C6.12187 1.30078 7.04688 1.11328 8 1.11328C8.95312 1.11328 9.87813 1.30078 10.75 1.66641C11.5906 2.02266 12.3469 2.53203 12.9937 3.17891C13.6437 3.82891 14.1531 4.58203 14.5063 5.42266C14.875 6.29141 15.0594 7.21641 15.0594 8.17266C15.0594 9.12578 14.8719 10.0508 14.5063 10.9227C14.15 11.7633 13.6406 12.5195 12.9937 13.1664Z" fill="#030303"/>
<path d="M10.4563 4.17578H5.55005C4.69692 4.17578 4.00317 4.86953 4.00317 5.72266V7.35703V10.632C4.00317 11.4852 4.69692 12.1789 5.55005 12.1789H10.4563C11.3094 12.1789 12.0032 11.4852 12.0032 10.632V7.35391V5.71953C12 4.86953 11.3063 4.17578 10.4563 4.17578ZM10.9 5.09766H11.0782V5.27266V6.45391L9.72505 6.45703L9.72192 5.10078L10.9 5.09766ZM6.85942 7.35391C7.11567 7.00078 7.5313 6.76641 8.00005 6.76641C8.4688 6.76641 8.88442 6.99766 9.14067 7.35391C9.30942 7.58516 9.4063 7.86953 9.4063 8.17578C9.4063 8.95078 8.77505 9.58516 7.99692 9.58516C7.2188 9.58516 6.5938 8.95078 6.5938 8.17578C6.5938 7.86953 6.6938 7.58516 6.85942 7.35391ZM11.2219 10.6289C11.2219 11.0508 10.8782 11.3945 10.4563 11.3945H5.55005C5.12817 11.3945 4.78442 11.0508 4.78442 10.6289V7.35391H5.97817C5.87505 7.60703 5.81567 7.88516 5.81567 8.17578C5.81567 9.38203 6.79692 10.3633 8.00317 10.3633C9.20942 10.3633 10.1907 9.38203 10.1907 8.17578C10.1907 7.88516 10.1313 7.60703 10.0282 7.35391H11.2219V10.6289Z" fill="#030303"/>
</g>
<defs>
<clipPath id="clip0_88_1412">
<rect width="16" height="16" fill="#030303" transform="translate(0 0.175781)"/>
</clipPath>
</defs>
</svg>
