<svg width="100" height="18" viewBox="0 0 100 18" fill="none" xmlns="http://www.w3.org/2000/svg">
<path d="M99.6123 0.828125L96.658 17.5211H93.9199L95.2169 10.1474H87.3628L86.0658 17.5211H83.3276L86.2819 0.828125H89.0201L87.7471 8.03373H95.6012L96.8742 0.828125H99.6123Z" fill="#030303"/>
<path d="M75.0019 17.6906C73.9772 17.6906 73.0564 17.5304 72.2398 17.2102C71.4232 16.8739 70.7747 16.3936 70.2943 15.7691C69.8139 15.1286 69.5737 14.376 69.5737 13.5113C69.5737 13.3992 69.5897 13.1991 69.6218 12.9108H72.3359C72.2718 13.6474 72.488 14.2639 72.9844 14.7603C73.4808 15.2407 74.1933 15.4808 75.122 15.4808C76.1148 15.4808 76.8914 15.2807 77.4519 14.8804C78.0123 14.4641 78.2925 13.8716 78.2925 13.103C78.2925 12.6386 78.1484 12.2463 77.8602 11.9261C77.588 11.5898 77.2357 11.3096 76.8034 11.0854C76.387 10.8613 75.8026 10.597 75.05 10.2928C74.0572 9.87649 73.2646 9.50019 72.6721 9.16393C72.0797 8.82767 71.5673 8.36331 71.1349 7.77085C70.7186 7.17839 70.5105 6.43381 70.5105 5.53711C70.5105 4.54434 70.7667 3.67967 71.2791 2.94309C71.7915 2.19051 72.496 1.61406 73.3927 1.21375C74.3054 0.813437 75.3302 0.613281 76.4671 0.613281C77.604 0.613281 78.5807 0.805431 79.3974 1.18973C80.23 1.55802 80.8545 2.08643 81.2708 2.77496C81.7032 3.44749 81.8953 4.2401 81.8473 5.15281H78.965C79.0291 4.4963 78.8289 3.95188 78.3646 3.51954C77.9002 3.07119 77.2277 2.84702 76.347 2.84702C75.4183 2.84702 74.6737 3.06319 74.1133 3.49552C73.5688 3.91185 73.2966 4.48029 73.2966 5.20085C73.2966 5.6492 73.4327 6.0415 73.7049 6.37777C73.9932 6.69801 74.3534 6.97823 74.7858 7.21842C75.2181 7.44259 75.8026 7.71481 76.5391 8.03506C77.5319 8.4834 78.3245 8.88371 78.917 9.23599C79.5255 9.58826 80.0459 10.0686 80.4782 10.6771C80.9105 11.2696 81.1267 12.0061 81.1267 12.8868C81.1267 13.8156 80.8705 14.6482 80.3581 15.3848C79.8457 16.1053 79.1252 16.6738 78.1964 17.0901C77.2677 17.4904 76.2029 17.6906 75.0019 17.6906Z" fill="#030303"/>
<path d="M62.8664 14.111H55.8769L54.0755 17.5217H51.2173L60.1522 0.804688H63.3227L66.3491 17.5217H63.4668L62.8664 14.111ZM62.5061 11.9734L61.137 4.11927L57.0058 11.9734H62.5061Z" fill="#030303"/>
<path d="M32.8634 0.828125L35.3373 14.6869L42.7591 0.828125H45.6653L36.4422 17.5211H33.2717L29.9331 0.828125H32.8634Z" fill="#030303"/>
<path d="M21.0362 2.94235L20.1475 8.01029H25.9119L25.5517 10.1239H19.7872L18.8505 15.384H25.3355L24.9512 17.5217H15.728L18.6823 0.804688H27.9055L27.5212 2.94235H21.0362Z" fill="#030303"/>
<path d="M7.39815 9.18663L13.3067 17.5211H9.72796L4.58797 10.0513L3.26694 17.5211H0.528809L3.48311 0.828125H6.22124L4.87619 8.44205L12.7063 0.828125H16.141L7.39815 9.18663Z" fill="#030303"/>
</svg>
